<svg width="336" height="81" viewBox="0 0 336 81" fill="none" xmlns="http://www.w3.org/2000/svg">
<circle cx="10" cy="10" r="4" fill="#5F5F5F"/>
<circle cx="10" cy="10" r="4" fill="#5F5F5F"/>
<circle cx="10" cy="10" r="4" fill="#5F5F5F"/>
<circle cx="10" cy="10" r="4" fill="#5F5F5F"/>
<circle cx="31" cy="10" r="4" fill="#5F5F5F"/>
<circle cx="31" cy="10" r="4" fill="#5F5F5F"/>
<circle cx="31" cy="10" r="4" fill="#5F5F5F"/>
<circle cx="31" cy="10" r="4" fill="#5F5F5F"/>
<circle cx="10" cy="25" r="4" fill="#5F5F5F"/>
<circle cx="10" cy="25" r="4" fill="#5F5F5F"/>
<circle cx="10" cy="25" r="4" fill="#5F5F5F"/>
<circle cx="10" cy="25" r="4" fill="#5F5F5F"/>
<circle cx="31" cy="25" r="4" fill="#5F5F5F"/>
<circle cx="31" cy="25" r="4" fill="#5F5F5F"/>
<circle cx="31" cy="25" r="4" fill="#5F5F5F"/>
<circle cx="31" cy="25" r="4" fill="#5F5F5F"/>
<circle cx="52" cy="25" r="4" fill="#5F5F5F"/>
<circle cx="52" cy="25" r="4" fill="#5F5F5F"/>
<circle cx="52" cy="25" r="4" fill="#5F5F5F"/>
<circle cx="52" cy="25" r="4" fill="#5F5F5F"/>
<circle cx="52" cy="10" r="4" fill="#5F5F5F"/>
<circle cx="52" cy="10" r="4" fill="#5F5F5F"/>
<circle cx="52" cy="10" r="4" fill="#5F5F5F"/>
<circle cx="52" cy="10" r="4" fill="#5F5F5F"/>
<circle cx="73" cy="10" r="4" fill="#5F5F5F"/>
<circle cx="73" cy="10" r="4" fill="#5F5F5F"/>
<circle cx="73" cy="10" r="4" fill="#5F5F5F"/>
<circle cx="73" cy="10" r="4" fill="#5F5F5F"/>
<circle cx="73" cy="25" r="4" fill="#5F5F5F"/>
<circle cx="73" cy="25" r="4" fill="#5F5F5F"/>
<circle cx="73" cy="25" r="4" fill="#5F5F5F"/>
<circle cx="73" cy="25" r="4" fill="#5F5F5F"/>
<circle cx="10" cy="40" r="4" fill="#5F5F5F"/>
<circle cx="10" cy="40" r="4" fill="#5F5F5F"/>
<circle cx="10" cy="40" r="4" fill="#5F5F5F"/>
<circle cx="10" cy="40" r="4" fill="#5F5F5F"/>
<circle cx="31" cy="40" r="4" fill="#5F5F5F"/>
<circle cx="31" cy="40" r="4" fill="#5F5F5F"/>
<circle cx="31" cy="40" r="4" fill="#5F5F5F"/>
<circle cx="31" cy="40" r="4" fill="#5F5F5F"/>
<circle cx="10" cy="55" r="4" fill="#5F5F5F"/>
<circle cx="10" cy="55" r="4" fill="#5F5F5F"/>
<circle cx="10" cy="55" r="4" fill="#5F5F5F"/>
<circle cx="10" cy="55" r="4" fill="#5F5F5F"/>
<circle cx="31" cy="55" r="4" fill="#5F5F5F"/>
<circle cx="31" cy="55" r="4" fill="#5F5F5F"/>
<circle cx="31" cy="55" r="4" fill="#5F5F5F"/>
<circle cx="31" cy="55" r="4" fill="#5F5F5F"/>
<circle cx="52" cy="55" r="4" fill="#5F5F5F"/>
<circle cx="52" cy="55" r="4" fill="#5F5F5F"/>
<circle cx="52" cy="55" r="4" fill="#5F5F5F"/>
<circle cx="52" cy="55" r="4" fill="#5F5F5F"/>
<circle cx="52" cy="40" r="4" fill="#5F5F5F"/>
<circle cx="52" cy="40" r="4" fill="#5F5F5F"/>
<circle cx="52" cy="40" r="4" fill="#5F5F5F"/>
<circle cx="52" cy="40" r="4" fill="#5F5F5F"/>
<circle cx="73" cy="40" r="4" fill="#5F5F5F"/>
<circle cx="73" cy="40" r="4" fill="#5F5F5F"/>
<circle cx="73" cy="40" r="4" fill="#5F5F5F"/>
<circle cx="73" cy="40" r="4" fill="#5F5F5F"/>
<circle cx="73" cy="55" r="4" fill="#5F5F5F"/>
<circle cx="73" cy="55" r="4" fill="#5F5F5F"/>
<circle cx="73" cy="55" r="4" fill="#5F5F5F"/>
<circle cx="73" cy="55" r="4" fill="#5F5F5F"/>
<circle cx="94" cy="10" r="4" fill="#5F5F5F"/>
<circle cx="94" cy="10" r="4" fill="#5F5F5F"/>
<circle cx="94" cy="10" r="4" fill="#5F5F5F"/>
<circle cx="94" cy="10" r="4" fill="#5F5F5F"/>
<circle cx="115" cy="10" r="4" fill="#5F5F5F"/>
<circle cx="115" cy="10" r="4" fill="#5F5F5F"/>
<circle cx="115" cy="10" r="4" fill="#5F5F5F"/>
<circle cx="115" cy="10" r="4" fill="#5F5F5F"/>
<circle cx="94" cy="25" r="4" fill="#5F5F5F"/>
<circle cx="94" cy="25" r="4" fill="#5F5F5F"/>
<circle cx="94" cy="25" r="4" fill="#5F5F5F"/>
<circle cx="94" cy="25" r="4" fill="#5F5F5F"/>
<circle cx="115" cy="25" r="4" fill="#5F5F5F"/>
<circle cx="115" cy="25" r="4" fill="#5F5F5F"/>
<circle cx="115" cy="25" r="4" fill="#5F5F5F"/>
<circle cx="115" cy="25" r="4" fill="#5F5F5F"/>
<circle cx="136" cy="25" r="4" fill="#5F5F5F"/>
<circle cx="136" cy="25" r="4" fill="#5F5F5F"/>
<circle cx="136" cy="25" r="4" fill="#5F5F5F"/>
<circle cx="136" cy="25" r="4" fill="#5F5F5F"/>
<circle cx="136" cy="10" r="4" fill="#5F5F5F"/>
<circle cx="136" cy="10" r="4" fill="#5F5F5F"/>
<circle cx="136" cy="10" r="4" fill="#5F5F5F"/>
<circle cx="136" cy="10" r="4" fill="#5F5F5F"/>
<circle cx="157" cy="10" r="4" fill="#5F5F5F"/>
<circle cx="157" cy="10" r="4" fill="#5F5F5F"/>
<circle cx="157" cy="10" r="4" fill="#5F5F5F"/>
<circle cx="157" cy="10" r="4" fill="#5F5F5F"/>
<circle cx="157" cy="25" r="4" fill="#5F5F5F"/>
<circle cx="157" cy="25" r="4" fill="#5F5F5F"/>
<circle cx="157" cy="25" r="4" fill="#5F5F5F"/>
<circle cx="157" cy="25" r="4" fill="#5F5F5F"/>
<circle cx="94" cy="40" r="4" fill="#5F5F5F"/>
<circle cx="94" cy="40" r="4" fill="#5F5F5F"/>
<circle cx="94" cy="40" r="4" fill="#5F5F5F"/>
<circle cx="94" cy="40" r="4" fill="#5F5F5F"/>
<circle cx="115" cy="40" r="4" fill="#5F5F5F"/>
<circle cx="115" cy="40" r="4" fill="#5F5F5F"/>
<circle cx="115" cy="40" r="4" fill="#5F5F5F"/>
<circle cx="115" cy="40" r="4" fill="#5F5F5F"/>
<circle cx="94" cy="55" r="4" fill="#5F5F5F"/>
<circle cx="94" cy="55" r="4" fill="#5F5F5F"/>
<circle cx="94" cy="55" r="4" fill="#5F5F5F"/>
<circle cx="94" cy="55" r="4" fill="#5F5F5F"/>
<circle cx="115" cy="55" r="4" fill="#5F5F5F"/>
<circle cx="115" cy="55" r="4" fill="#5F5F5F"/>
<circle cx="115" cy="55" r="4" fill="#5F5F5F"/>
<circle cx="115" cy="55" r="4" fill="#5F5F5F"/>
<circle cx="136" cy="55" r="4" fill="#5F5F5F"/>
<circle cx="136" cy="55" r="4" fill="#5F5F5F"/>
<circle cx="136" cy="55" r="4" fill="#5F5F5F"/>
<circle cx="136" cy="55" r="4" fill="#5F5F5F"/>
<circle cx="136" cy="40" r="4" fill="#5F5F5F"/>
<circle cx="136" cy="40" r="4" fill="#5F5F5F"/>
<circle cx="136" cy="40" r="4" fill="#5F5F5F"/>
<circle cx="136" cy="40" r="4" fill="#5F5F5F"/>
<circle cx="157" cy="40" r="4" fill="#5F5F5F"/>
<circle cx="157" cy="40" r="4" fill="#5F5F5F"/>
<circle cx="157" cy="40" r="4" fill="#5F5F5F"/>
<circle cx="157" cy="40" r="4" fill="#5F5F5F"/>
<circle cx="157" cy="55" r="4" fill="#5F5F5F"/>
<circle cx="157" cy="55" r="4" fill="#5F5F5F"/>
<circle cx="157" cy="55" r="4" fill="#5F5F5F"/>
<circle cx="157" cy="55" r="4" fill="#5F5F5F"/>
<circle cx="178" cy="10" r="4" fill="#5F5F5F"/>
<circle cx="178" cy="10" r="4" fill="#5F5F5F"/>
<circle cx="178" cy="10" r="4" fill="#5F5F5F"/>
<circle cx="178" cy="10" r="4" fill="#5F5F5F"/>
<circle cx="199" cy="10" r="4" fill="#5F5F5F"/>
<circle cx="199" cy="10" r="4" fill="#5F5F5F"/>
<circle cx="199" cy="10" r="4" fill="#5F5F5F"/>
<circle cx="199" cy="10" r="4" fill="#5F5F5F"/>
<circle cx="178" cy="25" r="4" fill="#5F5F5F"/>
<circle cx="178" cy="25" r="4" fill="#5F5F5F"/>
<circle cx="178" cy="25" r="4" fill="#5F5F5F"/>
<circle cx="178" cy="25" r="4" fill="#5F5F5F"/>
<circle cx="199" cy="25" r="4" fill="#5F5F5F"/>
<circle cx="199" cy="25" r="4" fill="#5F5F5F"/>
<circle cx="199" cy="25" r="4" fill="#5F5F5F"/>
<circle cx="199" cy="25" r="4" fill="#5F5F5F"/>
<circle cx="220" cy="25" r="4" fill="#5F5F5F"/>
<circle cx="220" cy="25" r="4" fill="#5F5F5F"/>
<circle cx="220" cy="25" r="4" fill="#5F5F5F"/>
<circle cx="220" cy="25" r="4" fill="#5F5F5F"/>
<circle cx="220" cy="10" r="4" fill="#5F5F5F"/>
<circle cx="220" cy="10" r="4" fill="#5F5F5F"/>
<circle cx="220" cy="10" r="4" fill="#5F5F5F"/>
<circle cx="220" cy="10" r="4" fill="#5F5F5F"/>
<circle cx="241" cy="10" r="4" fill="#5F5F5F"/>
<circle cx="241" cy="10" r="4" fill="#5F5F5F"/>
<circle cx="241" cy="10" r="4" fill="#5F5F5F"/>
<circle cx="241" cy="10" r="4" fill="#5F5F5F"/>
<circle cx="241" cy="25" r="4" fill="#5F5F5F"/>
<circle cx="241" cy="25" r="4" fill="#5F5F5F"/>
<circle cx="241" cy="25" r="4" fill="#5F5F5F"/>
<circle cx="241" cy="25" r="4" fill="#5F5F5F"/>
<circle cx="178" cy="40" r="4" fill="#5F5F5F"/>
<circle cx="178" cy="40" r="4" fill="#5F5F5F"/>
<circle cx="178" cy="40" r="4" fill="#5F5F5F"/>
<circle cx="178" cy="40" r="4" fill="#5F5F5F"/>
<circle cx="199" cy="40" r="4" fill="#5F5F5F"/>
<circle cx="199" cy="40" r="4" fill="#5F5F5F"/>
<circle cx="199" cy="40" r="4" fill="#5F5F5F"/>
<circle cx="199" cy="40" r="4" fill="#5F5F5F"/>
<circle cx="178" cy="55" r="4" fill="#5F5F5F"/>
<circle cx="178" cy="55" r="4" fill="#5F5F5F"/>
<circle cx="178" cy="55" r="4" fill="#5F5F5F"/>
<circle cx="178" cy="55" r="4" fill="#5F5F5F"/>
<circle cx="199" cy="55" r="4" fill="#5F5F5F"/>
<circle cx="199" cy="55" r="4" fill="#5F5F5F"/>
<circle cx="199" cy="55" r="4" fill="#5F5F5F"/>
<circle cx="199" cy="55" r="4" fill="#5F5F5F"/>
<circle cx="220" cy="55" r="4" fill="#5F5F5F"/>
<circle cx="220" cy="55" r="4" fill="#5F5F5F"/>
<circle cx="220" cy="55" r="4" fill="#5F5F5F"/>
<circle cx="220" cy="55" r="4" fill="#5F5F5F"/>
<circle cx="220" cy="40" r="4" fill="#5F5F5F"/>
<circle cx="220" cy="40" r="4" fill="#5F5F5F"/>
<circle cx="220" cy="40" r="4" fill="#5F5F5F"/>
<circle cx="220" cy="40" r="4" fill="#5F5F5F"/>
<circle cx="241" cy="40" r="4" fill="#5F5F5F"/>
<circle cx="241" cy="40" r="4" fill="#5F5F5F"/>
<circle cx="241" cy="40" r="4" fill="#5F5F5F"/>
<circle cx="241" cy="40" r="4" fill="#5F5F5F"/>
<circle cx="241" cy="55" r="4" fill="#5F5F5F"/>
<circle cx="241" cy="55" r="4" fill="#5F5F5F"/>
<circle cx="241" cy="55" r="4" fill="#5F5F5F"/>
<circle cx="241" cy="55" r="4" fill="#5F5F5F"/>
<circle cx="262" cy="10" r="4" fill="#5F5F5F"/>
<circle cx="262" cy="10" r="4" fill="#5F5F5F"/>
<circle cx="262" cy="10" r="4" fill="#5F5F5F"/>
<circle cx="262" cy="10" r="4" fill="#5F5F5F"/>
<circle cx="283" cy="10" r="4" fill="#5F5F5F"/>
<circle cx="283" cy="10" r="4" fill="#5F5F5F"/>
<circle cx="283" cy="10" r="4" fill="#5F5F5F"/>
<circle cx="283" cy="10" r="4" fill="#5F5F5F"/>
<circle cx="262" cy="25" r="4" fill="#5F5F5F"/>
<circle cx="262" cy="25" r="4" fill="#5F5F5F"/>
<circle cx="262" cy="25" r="4" fill="#5F5F5F"/>
<circle cx="262" cy="25" r="4" fill="#5F5F5F"/>
<circle cx="283" cy="25" r="4" fill="#5F5F5F"/>
<circle cx="283" cy="25" r="4" fill="#5F5F5F"/>
<circle cx="283" cy="25" r="4" fill="#5F5F5F"/>
<circle cx="283" cy="25" r="4" fill="#5F5F5F"/>
<circle cx="304" cy="25" r="4" fill="#5F5F5F"/>
<circle cx="304" cy="25" r="4" fill="#5F5F5F"/>
<circle cx="304" cy="25" r="4" fill="#5F5F5F"/>
<circle cx="304" cy="25" r="4" fill="#5F5F5F"/>
<circle cx="304" cy="10" r="4" fill="#5F5F5F"/>
<circle cx="304" cy="10" r="4" fill="#5F5F5F"/>
<circle cx="304" cy="10" r="4" fill="#5F5F5F"/>
<circle cx="304" cy="10" r="4" fill="#5F5F5F"/>
<circle cx="325" cy="10" r="4" fill="#5F5F5F"/>
<circle cx="325" cy="10" r="4" fill="#5F5F5F"/>
<circle cx="325" cy="10" r="4" fill="#5F5F5F"/>
<circle cx="325" cy="10" r="4" fill="#5F5F5F"/>
<circle cx="325" cy="25" r="4" fill="#5F5F5F"/>
<circle cx="325" cy="25" r="4" fill="#5F5F5F"/>
<circle cx="325" cy="25" r="4" fill="#5F5F5F"/>
<circle cx="325" cy="25" r="4" fill="#5F5F5F"/>
<circle cx="262" cy="40" r="4" fill="#5F5F5F"/>
<circle cx="262" cy="40" r="4" fill="#5F5F5F"/>
<circle cx="262" cy="40" r="4" fill="#5F5F5F"/>
<circle cx="262" cy="40" r="4" fill="#5F5F5F"/>
<circle cx="283" cy="40" r="4" fill="#5F5F5F"/>
<circle cx="283" cy="40" r="4" fill="#5F5F5F"/>
<circle cx="283" cy="40" r="4" fill="#5F5F5F"/>
<circle cx="283" cy="40" r="4" fill="#5F5F5F"/>
<circle cx="262" cy="55" r="4" fill="#5F5F5F"/>
<circle cx="262" cy="55" r="4" fill="#5F5F5F"/>
<circle cx="262" cy="55" r="4" fill="#5F5F5F"/>
<circle cx="262" cy="55" r="4" fill="#5F5F5F"/>
<circle cx="283" cy="55" r="4" fill="#5F5F5F"/>
<circle cx="283" cy="55" r="4" fill="#5F5F5F"/>
<circle cx="283" cy="55" r="4" fill="#5F5F5F"/>
<circle cx="283" cy="55" r="4" fill="#5F5F5F"/>
<circle cx="304" cy="55" r="4" fill="#5F5F5F"/>
<circle cx="304" cy="55" r="4" fill="#5F5F5F"/>
<circle cx="304" cy="55" r="4" fill="#5F5F5F"/>
<circle cx="304" cy="55" r="4" fill="#5F5F5F"/>
<circle cx="304" cy="40" r="4" fill="#5F5F5F"/>
<circle cx="304" cy="40" r="4" fill="#5F5F5F"/>
<circle cx="304" cy="40" r="4" fill="#5F5F5F"/>
<circle cx="304" cy="40" r="4" fill="#5F5F5F"/>
<circle cx="325" cy="40" r="4" fill="#5F5F5F"/>
<circle cx="325" cy="40" r="4" fill="#5F5F5F"/>
<circle cx="325" cy="40" r="4" fill="#5F5F5F"/>
<circle cx="325" cy="40" r="4" fill="#5F5F5F"/>
<circle cx="325" cy="55" r="4" fill="#5F5F5F"/>
<circle cx="325" cy="55" r="4" fill="#5F5F5F"/>
<circle cx="325" cy="55" r="4" fill="#5F5F5F"/>
<circle cx="325" cy="55" r="4" fill="#5F5F5F"/>
<circle cx="10" cy="70" r="4" fill="#5F5F5F"/>
<circle cx="10" cy="70" r="4" fill="#5F5F5F"/>
<circle cx="10" cy="70" r="4" fill="#5F5F5F"/>
<circle cx="10" cy="70" r="4" fill="#5F5F5F"/>
<circle cx="31" cy="70" r="4" fill="#5F5F5F"/>
<circle cx="31" cy="70" r="4" fill="#5F5F5F"/>
<circle cx="31" cy="70" r="4" fill="#5F5F5F"/>
<circle cx="31" cy="70" r="4" fill="#5F5F5F"/>
<circle cx="52" cy="70" r="4" fill="#5F5F5F"/>
<circle cx="52" cy="70" r="4" fill="#5F5F5F"/>
<circle cx="52" cy="70" r="4" fill="#5F5F5F"/>
<circle cx="52" cy="70" r="4" fill="#5F5F5F"/>
<circle cx="73" cy="70" r="4" fill="#5F5F5F"/>
<circle cx="73" cy="70" r="4" fill="#5F5F5F"/>
<circle cx="73" cy="70" r="4" fill="#5F5F5F"/>
<circle cx="73" cy="70" r="4" fill="#5F5F5F"/>
<circle cx="94" cy="70" r="4" fill="#5F5F5F"/>
<circle cx="94" cy="70" r="4" fill="#5F5F5F"/>
<circle cx="94" cy="70" r="4" fill="#5F5F5F"/>
<circle cx="94" cy="70" r="4" fill="#5F5F5F"/>
<circle cx="115" cy="70" r="4" fill="#5F5F5F"/>
<circle cx="115" cy="70" r="4" fill="#5F5F5F"/>
<circle cx="115" cy="70" r="4" fill="#5F5F5F"/>
<circle cx="115" cy="70" r="4" fill="#5F5F5F"/>
<circle cx="136" cy="70" r="4" fill="#5F5F5F"/>
<circle cx="136" cy="70" r="4" fill="#5F5F5F"/>
<circle cx="136" cy="70" r="4" fill="#5F5F5F"/>
<circle cx="136" cy="70" r="4" fill="#5F5F5F"/>
<circle cx="157" cy="70" r="4" fill="#5F5F5F"/>
<circle cx="157" cy="70" r="4" fill="#5F5F5F"/>
<circle cx="157" cy="70" r="4" fill="#5F5F5F"/>
<circle cx="157" cy="70" r="4" fill="#5F5F5F"/>
<circle cx="178" cy="70" r="4" fill="#5F5F5F"/>
<circle cx="178" cy="70" r="4" fill="#5F5F5F"/>
<circle cx="178" cy="70" r="4" fill="#5F5F5F"/>
<circle cx="178" cy="70" r="4" fill="#5F5F5F"/>
<circle cx="199" cy="70" r="4" fill="#5F5F5F"/>
<circle cx="199" cy="70" r="4" fill="#5F5F5F"/>
<circle cx="199" cy="70" r="4" fill="#5F5F5F"/>
<circle cx="199" cy="70" r="4" fill="#5F5F5F"/>
<circle cx="220" cy="70" r="4" fill="#5F5F5F"/>
<circle cx="220" cy="70" r="4" fill="#5F5F5F"/>
<circle cx="220" cy="70" r="4" fill="#5F5F5F"/>
<circle cx="220" cy="70" r="4" fill="#5F5F5F"/>
<circle cx="241" cy="70" r="4" fill="#5F5F5F"/>
<circle cx="241" cy="70" r="4" fill="#5F5F5F"/>
<circle cx="241" cy="70" r="4" fill="#5F5F5F"/>
<circle cx="241" cy="70" r="4" fill="#5F5F5F"/>
<circle cx="262" cy="70" r="4" fill="#5F5F5F"/>
<circle cx="262" cy="70" r="4" fill="#5F5F5F"/>
<circle cx="262" cy="70" r="4" fill="#5F5F5F"/>
<circle cx="262" cy="70" r="4" fill="#5F5F5F"/>
<circle cx="283" cy="70" r="4" fill="#5F5F5F"/>
<circle cx="283" cy="70" r="4" fill="#5F5F5F"/>
<circle cx="283" cy="70" r="4" fill="#5F5F5F"/>
<circle cx="283" cy="70" r="4" fill="#5F5F5F"/>
<circle cx="304" cy="70" r="4" fill="#5F5F5F"/>
<circle cx="304" cy="70" r="4" fill="#5F5F5F"/>
<circle cx="304" cy="70" r="4" fill="#5F5F5F"/>
<circle cx="304" cy="70" r="4" fill="#5F5F5F"/>
<circle cx="325" cy="70" r="4" fill="#5F5F5F"/>
<circle cx="325" cy="70" r="4" fill="#5F5F5F"/>
<circle cx="325" cy="70" r="4" fill="#5F5F5F"/>
<circle cx="325" cy="70" r="4" fill="#5F5F5F"/>
</svg>
