<svg width="172" height="97" viewBox="0 0 172 97" fill="none" xmlns="http://www.w3.org/2000/svg">
<line x1="9.38218" y1="40.2137" x2="23.3822" y2="29.2137" stroke="#5F5F5F" stroke-width="2"/>
<line x1="25.6178" y1="29.2137" x2="39.6178" y2="40.2137" stroke="#5F5F5F" stroke-width="2"/>
<path d="M22 29L24.5 27L27 29L25 30H24L22 29Z" fill="#5F5F5F"/>
<path d="M41 41L40 41.5L39 41L40 39.5L41 41Z" fill="#5F5F5F"/>
<line x1="40.3822" y1="40.2137" x2="54.3822" y2="29.2137" stroke="#5F5F5F" stroke-width="2"/>
<line x1="56.6178" y1="29.2137" x2="70.6178" y2="40.2137" stroke="#5F5F5F" stroke-width="2"/>
<path d="M53 29L55.5 27L58 29L56 30H55L53 29Z" fill="#5F5F5F"/>
<path d="M72 41L71 41.5L70 41L71 39.5L72 41Z" fill="#5F5F5F"/>
<line x1="71.3822" y1="40.2137" x2="85.3822" y2="29.2137" stroke="#5F5F5F" stroke-width="2"/>
<line x1="87.6178" y1="29.2137" x2="101.618" y2="40.2137" stroke="#5F5F5F" stroke-width="2"/>
<path d="M84 29L86.5 27L89 29L87 30H86L84 29Z" fill="#5F5F5F"/>
<path d="M103 41L102 41.5L101 41L102 39.5L103 41Z" fill="#5F5F5F"/>
<line x1="102.382" y1="40.2137" x2="116.382" y2="29.2137" stroke="#5F5F5F" stroke-width="2"/>
<line x1="118.618" y1="29.2137" x2="132.618" y2="40.2137" stroke="#5F5F5F" stroke-width="2"/>
<path d="M115 29L117.5 27L120 29L118 30H117L115 29Z" fill="#5F5F5F"/>
<path d="M134 41L133 41.5L132 41L133 39.5L134 41Z" fill="#5F5F5F"/>
<line x1="133.382" y1="40.2137" x2="147.382" y2="29.2137" stroke="#5F5F5F" stroke-width="2"/>
<line x1="149.618" y1="29.2137" x2="163.618" y2="40.2137" stroke="#5F5F5F" stroke-width="2"/>
<path d="M146 29L148.5 27L151 29L149 30H148L146 29Z" fill="#5F5F5F"/>
<line x1="9.38218" y1="55.2137" x2="23.3822" y2="44.2137" stroke="#5F5F5F" stroke-width="2"/>
<line x1="25.6178" y1="44.2137" x2="39.6178" y2="55.2137" stroke="#5F5F5F" stroke-width="2"/>
<path d="M22 44L24.5 42L27 44L25 45H24L22 44Z" fill="#5F5F5F"/>
<path d="M41 56L40 56.5L39 56L40 54.5L41 56Z" fill="#5F5F5F"/>
<line x1="40.3822" y1="55.2137" x2="54.3822" y2="44.2137" stroke="#5F5F5F" stroke-width="2"/>
<line x1="56.6178" y1="44.2137" x2="70.6178" y2="55.2137" stroke="#5F5F5F" stroke-width="2"/>
<path d="M53 44L55.5 42L58 44L56 45H55L53 44Z" fill="#5F5F5F"/>
<path d="M72 56L71 56.5L70 56L71 54.5L72 56Z" fill="#5F5F5F"/>
<line x1="71.3822" y1="55.2137" x2="85.3822" y2="44.2137" stroke="#5F5F5F" stroke-width="2"/>
<line x1="87.6178" y1="44.2137" x2="101.618" y2="55.2137" stroke="#5F5F5F" stroke-width="2"/>
<path d="M84 44L86.5 42L89 44L87 45H86L84 44Z" fill="#5F5F5F"/>
<path d="M103 56L102 56.5L101 56L102 54.5L103 56Z" fill="#5F5F5F"/>
<line x1="102.382" y1="55.2137" x2="116.382" y2="44.2137" stroke="#5F5F5F" stroke-width="2"/>
<line x1="118.618" y1="44.2137" x2="132.618" y2="55.2137" stroke="#5F5F5F" stroke-width="2"/>
<path d="M115 44L117.5 42L120 44L118 45H117L115 44Z" fill="#5F5F5F"/>
<path d="M134 56L133 56.5L132 56L133 54.5L134 56Z" fill="#5F5F5F"/>
<line x1="133.382" y1="55.2137" x2="147.382" y2="44.2137" stroke="#5F5F5F" stroke-width="2"/>
<line x1="149.618" y1="44.2137" x2="163.618" y2="55.2137" stroke="#5F5F5F" stroke-width="2"/>
<path d="M146 44L148.5 42L151 44L149 45H148L146 44Z" fill="#5F5F5F"/>
<line x1="10.3822" y1="70.2137" x2="24.3822" y2="59.2137" stroke="#5F5F5F" stroke-width="2"/>
<line x1="26.6178" y1="59.2137" x2="40.6178" y2="70.2137" stroke="#5F5F5F" stroke-width="2"/>
<path d="M23 59L25.5 57L28 59L26 60H25L23 59Z" fill="#5F5F5F"/>
<path d="M42 71L41 71.5L40 71L41 69.5L42 71Z" fill="#5F5F5F"/>
<line x1="41.3822" y1="70.2137" x2="55.3822" y2="59.2137" stroke="#5F5F5F" stroke-width="2"/>
<line x1="57.6178" y1="59.2137" x2="71.6178" y2="70.2137" stroke="#5F5F5F" stroke-width="2"/>
<path d="M54 59L56.5 57L59 59L57 60H56L54 59Z" fill="#5F5F5F"/>
<path d="M73 71L72 71.5L71 71L72 69.5L73 71Z" fill="#5F5F5F"/>
<line x1="72.3822" y1="70.2137" x2="86.3822" y2="59.2137" stroke="#5F5F5F" stroke-width="2"/>
<line x1="88.6178" y1="59.2137" x2="102.618" y2="70.2137" stroke="#5F5F5F" stroke-width="2"/>
<path d="M85 59L87.5 57L90 59L88 60H87L85 59Z" fill="#5F5F5F"/>
<path d="M104 71L103 71.5L102 71L103 69.5L104 71Z" fill="#5F5F5F"/>
<line x1="103.382" y1="70.2137" x2="117.382" y2="59.2137" stroke="#5F5F5F" stroke-width="2"/>
<line x1="119.618" y1="59.2137" x2="133.618" y2="70.2137" stroke="#5F5F5F" stroke-width="2"/>
<path d="M116 59L118.5 57L121 59L119 60H118L116 59Z" fill="#5F5F5F"/>
<path d="M135 71L134 71.5L133 71L134 69.5L135 71Z" fill="#5F5F5F"/>
<line x1="134.382" y1="70.2137" x2="148.382" y2="59.2137" stroke="#5F5F5F" stroke-width="2"/>
<line x1="150.618" y1="59.2137" x2="164.618" y2="70.2137" stroke="#5F5F5F" stroke-width="2"/>
<path d="M147 59L149.5 57L152 59L150 60H149L147 59Z" fill="#5F5F5F"/>
</svg>
